<svg width="100" height="100" version="1.1" viewBox="0 0 26.458 26.458" xmlns="http://www.w3.org/2000/svg">
 <g transform="translate(0 -270.54)">
  <g transform="matrix(1.3234 0 0 1.2471 -.32513 271.2)">
   <path d="m6.776 4.72h1.549v6.827h-1.549zm4.975-0.051c-0.942 0-1.61 0.061-2.087 0.143v6.735h1.53v-2.441c0.143 0.02 0.324 0.031 0.527 0.031 0.911 0 1.691-0.224 2.218-0.721 0.405-0.386 0.628-0.952 0.628-1.621 0-0.668-0.295-1.234-0.729-1.579-0.456-0.365-1.136-0.547-2.087-0.547zm-0.042 3.281c-0.222 0-0.385-0.01-0.516-0.041v-2.014c0.111-0.03 0.324-0.061 0.639-0.061 0.769 0 1.205 0.375 1.205 1.002 0 0.699-0.507 1.114-1.328 1.114zm-1.592-7.95c-4.594 0-8.317 3.723-8.317 8.316s8.317 11.918 8.317 11.918 8.317-7.324 8.317-11.917-3.723-8.317-8.317-8.317zm0.021 13.373c-3.05 0-5.522-2.473-5.522-5.524 0-3.05 2.473-5.522 5.522-5.522 3.051 0 5.522 2.473 5.522 5.522 0 3.05-2.472 5.524-5.522 5.524z" fill="#030104"/>
  </g>
 </g>
</svg>
