<svg fill="none" version="1.1" viewBox="0 0 24 24" xmlns="http://www.w3.org/2000/svg">
 <path d="m12.018 18.082c-0.84913 0-1.5374 0.68832-1.5374 1.5374s0.68832 1.5374 1.5374 1.5374zm0.01537 3.0749c0.84913 0 1.5374-0.68832 1.5374-1.5374s-0.68832-1.5374-1.5374-1.5374zm4.1211-6.0883c0.6282 0.57132 1.6005 0.52535 2.1718-0.1027 0.57147-0.6282 0.52535-1.6005-0.1027-2.172zm5.1711-5.6881c0.62805 0.57132 1.6005 0.52535 2.1718-0.10286 0.57147-0.62805 0.52535-1.6005-0.1027-2.1718zm-15.513 3.4134c-0.62812 0.57147-0.67414 1.5438-0.10279 2.172 0.57136 0.62805 1.5437 0.67402 2.1718 0.1027zm-5.171-5.6881c-0.62812 0.57132-0.67414 1.5438-0.10279 2.1718 0.57136 0.6282 1.5437 0.67417 2.1719 0.10286zm11.377 14.051h0.01537v-3.0749h-0.01537zm0-7.6872c1.5939 0 3.0431 0.60437 4.1365 1.5989l2.0691-2.2747c-1.6374-1.4893-3.817-2.3992-6.2056-2.3992zm0-7.6872c3.5852 0 6.8487 1.3614 9.3076 3.5981l2.0691-2.2747c-3.0028-2.7314-6.9969-4.3983-11.377-4.3983zm-4.1365 9.2862c1.0934-0.99458 2.5426-1.5989 4.1365-1.5989v-3.0749c-2.3886 0-4.5682 0.90986-6.2055 2.3992zm-5.171-5.6881c2.4589-2.2367 5.7224-3.5981 9.3075-3.5981v-3.0749c-4.3798 0-8.3738 1.6669-11.377 4.3983z" fill="#000" stroke-width="1.5374"/>
</svg>
